<svg width="16" height="17" viewBox="0 0 16 17" fill="none" xmlns="http://www.w3.org/2000/svg">
<path d="M12.6667 7.66667H3.33333C2.59695 7.66667 2 8.26362 2 9V13.6667C2 14.403 2.59695 15 3.33333 15H12.6667C13.403 15 14 14.403 14 13.6667V9C14 8.26362 13.403 7.66667 12.6667 7.66667Z" stroke="#B5BBCF" stroke-linecap="round" stroke-linejoin="round"/>
<path d="M4.66666 7.66667V5C4.66666 4.11595 5.01785 3.2681 5.64297 2.64298C6.26809 2.01786 7.11593 1.66667 7.99999 1.66667C8.88404 1.66667 9.73189 2.01786 10.357 2.64298C10.9821 3.2681 11.3333 4.11595 11.3333 5V7.66667" stroke="#B5BBCF" stroke-linecap="round" stroke-linejoin="round"/>
</svg>
